<svg width="100" height="32" viewBox="0 0 100 32" fill="none" xmlns="http://www.w3.org/2000/svg">
<path d="M44.1283 22.9999L41.3563 18.1039H40.1683V22.9999H37.6483V10.4359H42.3643C43.3363 10.4359 44.1643 10.6099 44.8483 10.9579C45.5323 11.2939 46.0423 11.7559 46.3783 12.3439C46.7263 12.9199 46.9003 13.5679 46.9003 14.2879C46.9003 15.1159 46.6603 15.8659 46.1803 16.5379C45.7003 17.1979 44.9863 17.6539 44.0383 17.9059L47.0443 22.9999H44.1283ZM40.1683 16.2139H42.2743C42.9583 16.2139 43.4683 16.0519 43.8043 15.7279C44.1403 15.3919 44.3083 14.9299 44.3083 14.3419C44.3083 13.7659 44.1403 13.3219 43.8043 13.0099C43.4683 12.6859 42.9583 12.5239 42.2743 12.5239H40.1683V16.2139Z" fill="white"/>
<path d="M58.4495 17.7979C58.4495 18.1579 58.4255 18.4819 58.3775 18.7699H51.0875C51.1475 19.4899 51.3995 20.0539 51.8435 20.4619C52.2875 20.8699 52.8335 21.0739 53.4815 21.0739C54.4175 21.0739 55.0835 20.6719 55.4795 19.8679H58.1975C57.9095 20.8279 57.3575 21.6199 56.5415 22.2439C55.7255 22.8559 54.7235 23.1619 53.5355 23.1619C52.5755 23.1619 51.7115 22.9519 50.9435 22.5319C50.1875 22.0999 49.5935 21.4939 49.1615 20.7139C48.7415 19.9339 48.5315 19.0339 48.5315 18.0139C48.5315 16.9819 48.7415 16.0759 49.1615 15.2959C49.5815 14.5159 50.1695 13.9159 50.9255 13.4959C51.6815 13.0759 52.5515 12.8659 53.5355 12.8659C54.4835 12.8659 55.3295 13.0699 56.0735 13.4779C56.8295 13.8859 57.4115 14.4679 57.8195 15.2239C58.2395 15.9679 58.4495 16.8259 58.4495 17.7979ZM55.8395 17.0779C55.8275 16.4299 55.5935 15.9139 55.1375 15.5299C54.6815 15.1339 54.1235 14.9359 53.4635 14.9359C52.8395 14.9359 52.3115 15.1279 51.8795 15.5119C51.4595 15.8839 51.2015 16.4059 51.1055 17.0779H55.8395Z" fill="white"/>
<path d="M63.2229 15.0979V19.9219C63.2229 20.2579 63.3009 20.5039 63.4569 20.6599C63.6249 20.8039 63.9009 20.8759 64.2849 20.8759H65.4549V22.9999H63.8709C61.7469 22.9999 60.6849 21.9679 60.6849 19.9039V15.0979H59.4969V13.0279H60.6849V10.5619H63.2229V13.0279H65.4549V15.0979H63.2229Z" fill="#5CE1E6"/>
<path d="M66.6194 17.9779C66.6194 16.9699 66.8174 16.0759 67.2134 15.2959C67.6214 14.5159 68.1674 13.9159 68.8514 13.4959C69.5474 13.0759 70.3214 12.8659 71.1734 12.8659C71.9174 12.8659 72.5654 13.0159 73.1174 13.3159C73.6814 13.6159 74.1314 13.9939 74.4674 14.4499V13.0279H77.0054V22.9999H74.4674V21.5419C74.1434 22.0099 73.6934 22.3999 73.1174 22.7119C72.5534 23.0119 71.8994 23.1619 71.1554 23.1619C70.3154 23.1619 69.5474 22.9459 68.8514 22.5139C68.1674 22.0819 67.6214 21.4759 67.2134 20.6959C66.8174 19.9039 66.6194 18.9979 66.6194 17.9779ZM74.4674 18.0139C74.4674 17.4019 74.3474 16.8799 74.1074 16.4479C73.8674 16.0039 73.5434 15.6679 73.1354 15.4399C72.7274 15.1999 72.2894 15.0799 71.8214 15.0799C71.3534 15.0799 70.9214 15.1939 70.5254 15.4219C70.1294 15.6499 69.8054 15.9859 69.5534 16.4299C69.3134 16.8619 69.1934 17.3779 69.1934 17.9779C69.1934 18.5779 69.3134 19.1059 69.5534 19.5619C69.8054 20.0059 70.1294 20.3479 70.5254 20.5879C70.9334 20.8279 71.3654 20.9479 71.8214 20.9479C72.2894 20.9479 72.7274 20.8339 73.1354 20.6059C73.5434 20.3659 73.8674 20.0299 74.1074 19.5979C74.3474 19.1539 74.4674 18.6259 74.4674 18.0139Z" fill="#5CE1E6"/>
<path d="M80.7446 11.8399C80.3006 11.8399 79.9286 11.7019 79.6286 11.4259C79.3406 11.1379 79.1966 10.7839 79.1966 10.3639C79.1966 9.94394 79.3406 9.59594 79.6286 9.31994C79.9286 9.03194 80.3006 8.88794 80.7446 8.88794C81.1886 8.88794 81.5546 9.03194 81.8426 9.31994C82.1426 9.59594 82.2926 9.94394 82.2926 10.3639C82.2926 10.7839 82.1426 11.1379 81.8426 11.4259C81.5546 11.7019 81.1886 11.8399 80.7446 11.8399ZM81.9866 13.0279V22.9999H79.4666V13.0279H81.9866Z" fill="#5CE1E6"/>
<path d="M86.9964 9.67994V22.9999H84.4764V9.67994H86.9964Z" fill="#5CE1E6"/>
<path d="M99.0261 13.0279L92.8521 27.7159H90.1701L92.3301 22.7479L88.3341 13.0279H91.1601L93.7341 19.9939L96.3441 13.0279H99.0261Z" fill="#5CE1E6"/>
<path fill-rule="evenodd" clip-rule="evenodd" d="M0 0H22C28.0751 0 33 4.92487 33 11C33 16.8512 28.4315 21.6353 22.667 21.9801L18.9958 18.4202C21.9299 17.2344 24 14.359 24 11C24 6.58172 20.4183 3 16 3C12.554 3 9.61697 5.17874 8.49113 8.23383L0 0Z" fill="#5CE1E6"/>
<path fill-rule="evenodd" clip-rule="evenodd" d="M0 0V32C0 32 0 28 12 28C24 28 33 32 33 32L18.9958 18.4202C18.0705 18.7941 17.0593 19 16 19C11.5817 19 8 15.4183 8 11C8 10.0277 8.17346 9.09586 8.49113 8.23383L0 0Z" fill="white"/>
<circle cx="16" cy="11" r="5" transform="rotate(45 16 11)" fill="#5CE1E6"/>
<path d="M19.5355 14.5356C19.9998 14.0713 20.3681 13.5201 20.6194 12.9134C20.8707 12.3068 21 11.6566 21 11C21 10.3434 20.8707 9.69323 20.6194 9.08661C20.3681 8.47998 19.9998 7.92878 19.5355 7.46449C19.0712 7.0002 18.52 6.6319 17.9134 6.38063C17.3068 6.12935 16.6566 6.00002 16 6.00002C15.3434 6.00002 14.6932 6.12935 14.0866 6.38063C13.48 6.6319 12.9288 7.0002 12.4645 7.46449L16 11L19.5355 14.5356Z" fill="white"/>
</svg>
